# xmcd
#
# Track frame offsets:
#	150
#	24889
#	40941
#	46649
#	55366
#	73533
#	88708
#	104250
#	119621
#	139561
#	145314
#	156472
#	174700
#	192806
#	209736
#
# Disc length: 3042 seconds
#
# Revision: 1
# Processed by: cddbd v1.5.2PL0 Copyright (c) Steve Scherf et al.
# Submitted via: audiograbber 1.83.01
#
DISCID=d80be00f
DTITLE=Unmada Manfred Kindel und der Kinderwaldchor - ADLERBÄR
DYEAR=2019
DGENRE=Liedermacher Kindermusik
TTITLE0=Adlerbär
TTITLE1=Heya
TTITLE2=Das Dschinderassabum
TTITLE3=Heute wird bei uns Musik gemacht
TTITLE4=Musik ist einfach wunderbar
TTITLE5=Dreckgespenterchen
TTITLE6=Oles Lied
TTITLE7=Wart's ab!
TTITLE8=Ich wünsche mir
TTITLE9=Fli flei flo
TTITLE10=Mir wird so plötzlich anders
TTITLE11=Hallo Nachbar
TTITLE12=Jungs
TTITLE13=Alle Herzen gehen auf
TTITLE14=Mach die Augen zu
EXTD=Unikum Musik\nMusikverlag Manfred Kindel\nwww.unmada.de
EXTT0=
EXTT1=
EXTT2=
EXTT3=
EXTT4=
EXTT5=
EXTT6=
EXTT7=
EXTT8=
EXTT9=
EXTT10=
EXTT11=
EXTT12=
EXTT13=
EXTT14=
PLAYORDER=
